<svg width="200" height="40" viewBox="0 0 200 40" fill="none" xmlns="http://www.w3.org/2000/svg">
  <!-- Squid Icon -->
  <g transform="translate(0, 2)">
    <!-- Body -->
    <ellipse cx="20" cy="18" rx="12" ry="10" fill="#3b82f6"/>
    <!-- Eyes -->
    <circle cx="16" cy="16" r="2.5" fill="white"/>
    <circle cx="24" cy="16" r="2.5" fill="white"/>
    <circle cx="16" cy="16" r="1" fill="#1e3a8a"/>
    <circle cx="24" cy="16" r="1" fill="#1e3a8a"/>
    <!-- Tentacles -->
    <path d="M10 24 Q8 30 6 32" stroke="#3b82f6" stroke-width="3" stroke-linecap="round"/>
    <path d="M14 26 Q14 32 14 36" stroke="#3b82f6" stroke-width="3" stroke-linecap="round"/>
    <path d="M18 27 Q20 33 22 36" stroke="#3b82f6" stroke-width="3" stroke-linecap="round"/>
    <path d="M22 27 Q26 32 30 35" stroke="#3b82f6" stroke-width="3" stroke-linecap="round"/>
    <path d="M26 25 Q30 29 34 31" stroke="#3b82f6" stroke-width="3" stroke-linecap="round"/>
    <path d="M30 24 Q34 27 38 28" stroke="#3b82f6" stroke-width="3" stroke-linecap="round"/>
  </g>
  
  <!-- Text -->
  <text x="48" y="28" font-family="system-ui, -apple-system, sans-serif" font-size="26" font-weight="800" fill="#3b82f6" letter-spacing="1">Squid</text>
  <text x="125" y="28" font-family="system-ui, -apple-system, sans-serif" font-size="26" font-weight="600" fill="#4b5563" letter-spacing="1">Coder</text>
</svg>
